<?xml version="1.0" encoding="utf-8"?>
<svg xmlns="http://www.w3.org/2000/svg" viewBox="0 0 48 48" width="144" height="144">
  <path d="M6 17v18.5c0 3.58 2.92 6.5 6.5 6.5h23c3.58 0 6.5-2.92 6.5-6.5V17H6zM31.563 27.448l-3.456 2.621 1.17 3.745c.168.537-.03 1.122-.49 1.447C28.563 35.42 28.3 35.5 28.038 35.5c-.274 0-.548-.087-.778-.259L24 32.799l-3.26 2.441c-.45.339-1.067.346-1.527.021-.46-.325-.657-.909-.49-1.447l1.17-3.745-3.456-2.621c-.445-.337-.624-.92-.446-1.448.178-.528.673-.884 1.23-.884h4.266l1.285-3.739C22.953 20.852 23.446 20.5 24 20.5s1.047.352 1.228.876l1.285 3.739h4.266c.557 0 1.052.356 1.23.884C32.187 26.528 32.007 27.111 31.563 27.448zM42 14v-1.5C42 8.92 39.08 6 35.5 6h-23C8.92 6 6 8.92 6 12.5V14H42z" fill="#FF7A01" />
</svg>